<svg width="400" height="400" viewBox="0 0 400 400" fill="none" xmlns="http://www.w3.org/2000/svg">
<g filter="url(#filter0_f_89_121)">
<path d="M268.623 234.898C268.623 295.762 219.683 345.102 159.312 345.102C98.9405 345.102 50 295.762 50 234.898C50 174.034 98.9405 124.694 159.312 124.694C219.683 124.694 268.623 174.034 268.623 234.898Z" fill="url(#paint0_radial_89_121)"/>
</g>
<g filter="url(#filter1_f_89_121)">
<path d="M350 248.98C350 304.772 305.137 350 249.797 350C194.457 350 149.595 304.772 149.595 248.98C149.595 193.188 194.457 147.959 249.797 147.959C305.137 147.959 350 193.188 350 248.98Z" fill="url(#paint1_radial_89_121)"/>
</g>
<g filter="url(#filter2_f_89_121)">
<path d="M341.499 172.449C341.499 223.169 300.715 264.286 250.406 264.286C200.096 264.286 159.312 223.169 159.312 172.449C159.312 121.729 200.096 80.6122 250.406 80.6122C300.715 80.6122 341.499 121.729 341.499 172.449Z" fill="url(#paint2_radial_89_121)"/>
</g>
<g filter="url(#filter3_f_89_121)">
<path d="M292.915 172.449C292.915 240.076 238.537 294.898 171.457 294.898C104.378 294.898 50 240.076 50 172.449C50 104.822 104.378 50 171.457 50C238.537 50 292.915 104.822 292.915 172.449Z" fill="url(#paint3_radial_89_121)"/>
</g>
<defs>
<filter id="filter0_f_89_121" x="0" y="74.6939" width="318.624" height="320.408" filterUnits="userSpaceOnUse" color-interpolation-filters="sRGB">
<feFlood flood-opacity="0" result="BackgroundImageFix"/>
<feBlend mode="normal" in="SourceGraphic" in2="BackgroundImageFix" result="shape"/>
<feGaussianBlur stdDeviation="25" result="effect1_foregroundBlur_89_121"/>
</filter>
<filter id="filter1_f_89_121" x="99.5947" y="97.9592" width="300.405" height="302.041" filterUnits="userSpaceOnUse" color-interpolation-filters="sRGB">
<feFlood flood-opacity="0" result="BackgroundImageFix"/>
<feBlend mode="normal" in="SourceGraphic" in2="BackgroundImageFix" result="shape"/>
<feGaussianBlur stdDeviation="25" result="effect1_foregroundBlur_89_121"/>
</filter>
<filter id="filter2_f_89_121" x="109.312" y="30.6122" width="282.186" height="283.673" filterUnits="userSpaceOnUse" color-interpolation-filters="sRGB">
<feFlood flood-opacity="0" result="BackgroundImageFix"/>
<feBlend mode="normal" in="SourceGraphic" in2="BackgroundImageFix" result="shape"/>
<feGaussianBlur stdDeviation="25" result="effect1_foregroundBlur_89_121"/>
</filter>
<filter id="filter3_f_89_121" x="0" y="0" width="342.915" height="344.898" filterUnits="userSpaceOnUse" color-interpolation-filters="sRGB">
<feFlood flood-opacity="0" result="BackgroundImageFix"/>
<feBlend mode="normal" in="SourceGraphic" in2="BackgroundImageFix" result="shape"/>
<feGaussianBlur stdDeviation="25" result="effect1_foregroundBlur_89_121"/>
</filter>
<radialGradient id="paint0_radial_89_121" cx="0" cy="0" r="1" gradientUnits="userSpaceOnUse" gradientTransform="translate(159.312 234.898) rotate(-42.1977) scale(109.927 110.018)">
<stop stop-color="#AECBE3"/>
<stop offset="0.0001" stop-color="#CAB1AA"/>
<stop offset="0.425922" stop-color="#AECBE3"/>
<stop offset="1" stop-color="white" stop-opacity="0"/>
</radialGradient>
<radialGradient id="paint1_radial_89_121" cx="0" cy="0" r="1" gradientUnits="userSpaceOnUse" gradientTransform="translate(249.797 248.98) rotate(-42.0826) scale(115.825 115.925)">
<stop offset="0.00402692" stop-color="#FF0073" stop-opacity="0.58"/>
<stop offset="0.144659" stop-color="#FF59A4"/>
<stop offset="0.290499" stop-color="#E682A7"/>
<stop offset="0.4728" stop-color="#D49FA9" stop-opacity="0.53"/>
<stop offset="0.915529" stop-color="white" stop-opacity="0"/>
</radialGradient>
<radialGradient id="paint2_radial_89_121" cx="0" cy="0" r="1" gradientUnits="userSpaceOnUse" gradientTransform="translate(250.406 172.449) rotate(-45.5719) scale(109.31 109.296)">
<stop stop-color="#140D44" stop-opacity="0.67"/>
<stop offset="0.394671" stop-color="#A173DD"/>
<stop offset="0.858235" stop-color="white" stop-opacity="0.56"/>
<stop offset="0.9999" stop-color="#9A9A9F" stop-opacity="0"/>
</radialGradient>
<radialGradient id="paint3_radial_89_121" cx="0" cy="0" r="1" gradientUnits="userSpaceOnUse" gradientTransform="translate(171.457 172.449) rotate(-42.1977) scale(122.141 122.242)">
<stop stop-color="#F2AB36"/>
<stop offset="0.170702" stop-color="#F5923D"/>
<stop offset="0.306125" stop-color="#F87B44"/>
<stop offset="0.451965" stop-color="#F89681"/>
<stop offset="0.603014" stop-color="#F9B5C9"/>
<stop offset="1" stop-color="white" stop-opacity="0"/>
</radialGradient>
</defs>
</svg>
