<svg width="34" height="16" viewBox="0 0 34 16" fill="none" xmlns="http://www.w3.org/2000/svg">
<path d="M1.64852 0.779999C3.59518 0.779999 5.32185 1.23333 6.82852 2.14C8.60185 3.22 9.85518 4.76667 10.5885 6.78C11.1218 5.20667 11.9685 3.81333 13.1285 2.6C13.6885 2.02667 14.2818 1.58667 14.9085 1.28C15.5485 0.959999 16.1618 0.799999 16.7485 0.799999C16.8418 0.799999 16.9352 0.806666 17.0285 0.819999V1.02C16.4152 1.04667 15.7685 1.37333 15.0885 2C14.4218 2.61333 13.8285 3.36667 13.3085 4.26C12.7885 5.14 12.3352 6.06 11.9485 7.02C11.5752 7.98 11.3418 8.82667 11.2485 9.56V14.54C11.2485 15.02 11.4552 15.38 11.8685 15.62C12.0685 15.74 12.2885 15.8 12.5285 15.8H12.7685L12.7885 16H5.60852V15.8H5.86852C6.21518 15.8 6.50852 15.68 6.74852 15.44C7.00185 15.1867 7.13518 14.8867 7.14852 14.54V9.56C6.85518 8.16 6.34852 6.76667 5.62852 5.38C5.22852 4.62 4.78852 3.93333 4.30852 3.32C3.82852 2.70667 3.25518 2.18667 2.58852 1.76C1.92185 1.32 1.23518 1.07333 0.528516 1.02V0.819999C0.915182 0.793332 1.28852 0.779999 1.64852 0.779999ZM25.1329 16H17.5529V15.8H17.8129C18.1596 15.8 18.4529 15.68 18.6929 15.44C18.9462 15.1867 19.0796 14.8867 19.0929 14.54V3.12C17.6929 3.26667 16.6329 3.66 15.9129 4.3C15.2996 4.84667 14.8062 5.54667 14.4329 6.4L14.2329 6.32C14.4996 4.88 15.1862 3.8 16.2929 3.08C17.4129 2.36 18.8129 2 20.4929 2H25.1329C27.6396 2 29.5929 2.62 30.9929 3.86C32.4062 5.08667 33.1129 6.8 33.1129 9C33.1129 11.2 32.4062 12.92 30.9929 14.16C29.5796 15.3867 27.6262 16 25.1329 16ZM23.1929 15H24.7329C25.9729 15 26.9462 14.4733 27.6529 13.42C28.3596 12.3533 28.7129 10.88 28.7129 9C28.7129 7.12 28.3596 5.65333 27.6529 4.6C26.9462 3.53333 25.9729 3 24.7329 3L23.1929 3.04V15Z" fill="black"/>
</svg>
